<svg width="86" height="15" viewBox="0 0 86 15" fill="none" xmlns="http://www.w3.org/2000/svg">
<path d="M0.469453 14.16V0.719999H5.50945L7.94945 8.82H8.02945L10.4695 0.719999H15.4495V14.16H11.7495V5.1H11.6695L8.96945 14.16H6.34945L3.66945 5.08H3.56945V14.16H0.469453ZM18.069 14.16V0.719999H21.849V14.16H18.069ZM24.4538 14.16V0.719999H28.5138L32.8538 8.24H32.9138V0.719999H36.1138V14.16H32.5338L27.7338 5.78H27.6538V14.16H24.4538ZM42.413 11.5H43.753C45.633 11.5 46.553 10.56 46.553 7.74V7.06C46.553 4.2 45.493 3.38 43.653 3.38H42.413V11.5ZM38.653 14.16V0.719999H43.813C48.013 0.719999 50.513 2.5 50.513 7.12V7.58C50.513 12.12 48.013 14.16 43.833 14.16H38.653ZM56.3798 14.38C54.4998 14.38 52.9198 14.1 51.9598 13.58V10.84C53.1598 11.28 54.3798 11.6 55.9398 11.6C57.4398 11.6 58.0198 11.14 58.0198 10.34C58.0198 9.56 57.6798 9.32 56.3798 9.06L55.3798 8.86C53.2398 8.46 51.9398 7.52 51.9398 4.7C51.9398 2.16 53.5198 0.5 56.9198 0.5C59.0598 0.5 60.0998 0.819999 60.8998 1.2V3.9C59.9598 3.58 58.7998 3.26 57.2798 3.26C56.0598 3.26 55.4398 3.64 55.4398 4.42C55.4398 5.12 55.8398 5.4 57.0198 5.64L58.0198 5.82C60.3998 6.28 61.6998 7.22 61.6998 9.94C61.6998 12.82 59.8598 14.38 56.3798 14.38ZM63.6335 14.16V0.719999H72.9135V3.42H67.3535V5.98H71.6935V8.62H67.3535V11.46H73.0935V14.16H63.6335ZM78.0146 14.16V3.42H74.4746V0.719999H85.3146V3.42H81.7946V14.16H78.0146Z" fill="white"/>
</svg>
